<svg xmlns="http://www.w3.org/2000/svg" viewBox="0 0 64 64" role="img" aria-label="Seu Antônio">
  <circle cx="32" cy="32" r="32" fill="#FFF8F0"/>
  <circle cx="32" cy="32" r="28.5" fill="none" stroke="#2A1A12" stroke-width="2.6"/>
  <circle cx="32" cy="32" r="23.5" fill="none" stroke="#2A1A12" stroke-width="1.4"/>
  <rect x="2.2" y="29.2" width="5.6" height="5.6" rx="1" transform="rotate(45 5 32)" fill="#E8751A"/>
  <rect x="56.2" y="29.2" width="5.6" height="5.6" rx="1" transform="rotate(45 59 32)" fill="#E8751A"/>
  <!-- rosto woodcut simplificado -->
  <path d="M18 27c0-8 6-14 14-14s14 6 14 14c0 11-5 20-14 20s-14-9-14-20z" fill="#FFF8F0"/>
  <path d="M18.5 24c1.5-6 7-10 13.5-10s12 4 13.5 10c-2.5-2-6-3-8.5-1.8-2.5-3-9.5-3-12 .2-2.5-1.2-4-.4-6 1.6z" fill="#2A1A12"/>
  <g fill="none" stroke="#2A1A12" stroke-width="2.8" stroke-linecap="round" stroke-linejoin="round">
    <path d="M20 26c0 11 4 19 12 19s12-8 12-19"/>
    <circle cx="26" cy="30.5" r="4.2"/>
    <circle cx="38" cy="30.5" r="4.2"/>
    <path d="M30.2 30h3.6"/>
    <path d="M26 39.5c2.2 2.2 3.8 2.2 6 .6 2.2 1.6 3.8 1.6 6-.6"/>
  </g>
</svg>
